<?xml version="1.0" standalone="no"?>
<!DOCTYPE svg PUBLIC "-//W3C//DTD SVG 20010904//EN"
 "http://www.w3.org/TR/2001/REC-SVG-20010904/DTD/svg10.dtd">
<svg version="1.0" xmlns="http://www.w3.org/2000/svg"
 width="1024.000000pt" height="1024.000000pt" viewBox="0 0 1024.000000 1024.000000"
 preserveAspectRatio="xMidYMid meet">

<g transform="translate(0.000000,1024.000000) scale(0.100000,-0.100000)"
fill="#000000" stroke="none">
<path d="M7837 7859 c-127 -31 -228 -89 -327 -189 -94 -94 -152 -194 -187
-320 -26 -98 -24 -281 6 -387 38 -134 132 -273 254 -371 l27 -22 0 -875 c0
-481 -2 -875 -4 -875 -2 0 -42 53 -88 118 -378 531 -1091 1528 -1834 2567
-108 151 -186 226 -288 275 -156 75 -18 69 -1837 70 l-1634 1 -80 -25 c-124
-40 -219 -98 -311 -190 -296 -296 -320 -731 -59 -1056 158 -197 442 -314 678
-280 94 14 165 37 276 93 l85 42 163 3 163 4 -2 -1434 -3 -1433 -33 -74 c-105
-241 -92 -492 39 -714 53 -91 183 -221 274 -275 240 -142 553 -147 810 -14
112 58 250 189 313 297 73 123 94 200 99 356 6 150 -9 230 -64 346 l-28 58 -3
1443 -3 1442 258 0 c230 0 262 -2 298 -19 47 -22 89 -64 104 -104 8 -20 11
-457 11 -1408 l0 -1379 -44 -54 c-115 -142 -159 -327 -121 -511 39 -184 174
-358 346 -443 257 -127 532 -80 740 128 148 148 213 348 179 546 -25 137 -107
280 -200 349 l-50 37 0 781 c1 707 2 780 16 762 19 -23 761 -1065 1148 -1611
613 -863 610 -860 745 -927 199 -100 411 -59 582 112 57 57 85 95 112 151 71
148 67 28 67 1984 l0 1763 26 14 c40 21 129 122 173 197 161 272 123 610 -95
841 -79 84 -162 143 -254 179 -134 54 -304 66 -443 31z m282 -240 c226 -52
378 -278 344 -512 -21 -147 -120 -287 -244 -345 l-59 -27 -2 -1870 -3 -1870
-27 -46 c-32 -54 -82 -100 -140 -130 -33 -17 -55 -20 -113 -17 -131 6 -151 26
-425 414 -142 203 -512 723 -874 1229 -285 398 -441 615 -658 910 -52 72 -202
278 -334 459 -581 798 -578 795 -643 833 -29 17 -75 37 -103 42 -29 7 -195 11
-416 11 -346 0 -369 -1 -399 -19 l-32 -20 -3 -98 c-2 -54 -3 -755 -3 -1558 l0
-1460 43 -124 c48 -141 60 -229 42 -316 -45 -218 -192 -374 -406 -430 -230
-60 -490 59 -597 273 -47 96 -61 164 -54 287 4 83 11 117 43 205 l39 105 3
1548 2 1548 -30 30 -30 30 -272 -3 -273 -3 -85 -39 c-198 -90 -299 -110 -425
-87 -70 13 -183 66 -239 112 -130 109 -199 290 -176 466 28 213 199 400 402
442 37 8 524 11 1638 9 l1585 -3 60 -28 c112 -52 9 83 1261 -1667 839 -1173
1173 -1629 1206 -1646 35 -18 62 -18 98 1 64 33 60 -44 60 1274 l0 1200 -57
28 c-70 32 -161 121 -196 189 -56 111 -72 241 -43 350 40 149 167 278 316 320
55 15 160 17 219 3z m-2775 -1913 l156 -218 0 -1017 0 -1017 35 -13 c56 -20
141 -110 177 -188 29 -61 32 -77 32 -158 0 -124 -26 -189 -108 -271 -85 -84
-146 -107 -276 -102 -85 3 -102 7 -158 37 -77 42 -125 93 -166 180 -28 60 -31
75 -31 161 0 83 4 103 29 157 18 40 48 80 82 113 l54 51 0 1262 c0 733 4 1257
9 1252 5 -6 79 -108 165 -229z"/>
</g>
</svg>
